<svg width="103" height="24" viewBox="0 0 103 24" fill="none" xmlns="http://www.w3.org/2000/svg">
<path d="M25.92 0L19.92 6H0V12H13.92L7.91999 18H0V24H1.92L7.91999 18H27.84V12H13.92L19.92 6H27.84V0H25.92Z" fill="#1B1B18"/>
<path d="M54.1463 5.904V18H57.3863V5.904H54.1463Z" fill="#1B1B18"/>
<path d="M54.1031 4.3488H57.4079V1.044H54.1031V4.3488Z" fill="#1B1B18"/>
<path fill-rule="evenodd" clip-rule="evenodd" d="M45.984 18.4536C49.4616 18.4536 52.032 15.9048 52.032 12.0384C52.032 8.2152 49.44 5.5368 45.984 5.5368C43.9104 5.5368 42.1824 6.5088 41.0376 8.388V5.904H37.7976V22.644H41.0376V15.84C42.0312 17.5032 43.8672 18.4536 45.984 18.4536ZM40.9296 12.1464V11.9304C40.9296 9.6408 42.4848 8.1072 44.8176 8.1072C47.172 8.1072 48.7056 9.6624 48.7056 11.9952C48.7056 14.328 47.172 15.8832 44.8176 15.8832C42.5064 15.8832 40.9296 14.3928 40.9296 12.1464Z" fill="#1B1B18"/>
<path d="M64.588 18L59.1449 5.904H62.8384L66.5969 15.1488L70.3337 5.904L73.9408 5.9256L68.4977 18H64.588Z" fill="#1B1B18"/>
<path fill-rule="evenodd" clip-rule="evenodd" d="M81.597 18.4536C86.0034 18.4536 88.833 15.8616 88.833 12.0168C88.833 8.1072 86.0034 5.5368 81.597 5.5368C77.2122 5.5368 74.361 8.1072 74.361 12.0168C74.361 15.8616 77.1906 18.4536 81.597 18.4536ZM77.6874 12.0168C77.6874 9.6408 79.2858 8.1288 81.597 8.1288C83.9082 8.1288 85.5066 9.6408 85.5066 12.0168C85.5066 14.3496 83.9082 15.84 81.597 15.84C79.2858 15.84 77.6874 14.3496 77.6874 12.0168Z" fill="#1B1B18"/>
<path d="M97.8453 18.4536C94.5621 18.4536 92.4237 16.6392 92.4237 14.2632V8.388H89.8101V5.904H92.4885V4.0032L95.6637 1.8V5.904H101.431V8.388H95.6637V13.1832C95.6637 14.8896 96.7869 15.7752 98.8389 15.7752C99.5733 15.7752 100.675 15.6672 101.949 15.192L101.517 17.6976C100.329 18.1944 99.0981 18.4536 97.8453 18.4536Z" fill="#1B1B18"/>
</svg>
